<?xml version="1.0" encoding="utf-8"?>
<!-- Generator: Adobe Illustrator 27.5.0, SVG Export Plug-In . SVG Version: 6.00 Build 0)  -->
<svg version="1.1" id="Layer_1" xmlns="http://www.w3.org/2000/svg" xmlns:xlink="http://www.w3.org/1999/xlink" x="0px" y="0px"
	 viewBox="0 0 2572.542 2000.567" style="enable-background:new 0 0 2572.542 2000.567;" xml:space="preserve">
<rect x="0.171" y="0.283" style="fill:#FFFFFF;" width="2572.199" height="2000"/>
<g>
	<g>
		<g>
			<g>
				<path style="fill:#D2EAFF;" d="M2211.845,1013.784c-247.584-280.671-196.519-429.034-420.018-542.529
					C1402.552,273.578,1074.805,238.675,791.734,306.92c-983.77,237.175-535.159,1484.407-312.5,1484.575
					c89.774,0.068,341.384-6.269,486.047-6.618c277.478-0.668,616.225-0.041,861.332-0.822
					c114.263-0.364,417.369,7.732,475.49,7.439C2424.35,1790.878,2442.979,1275.806,2211.845,1013.784z"/>
			</g>
		</g>
	</g>
	<g>
		<ellipse style="fill:#FEC786;" cx="1392.34" cy="1778.132" rx="998.532" ry="63.844"/>
	</g>
	<g>
		<g>
			<rect x="552.998" y="187.184" style="fill:#A0D3F9;" width="1024.233" height="1581.818"/>
		</g>
		<g style="opacity:0.8;">
			<rect x="594.396" y="792.174" style="fill:#D2EAFF;" width="941.437" height="234.765"/>
		</g>
		<g style="opacity:0.8;">
			<rect x="594.396" y="1070.48" style="fill:#D2EAFF;" width="941.437" height="234.765"/>
		</g>
		<g style="opacity:0.8;">
			<rect x="594.396" y="1348.786" style="fill:#D2EAFF;" width="941.437" height="243.372"/>
		</g>
		<g style="opacity:0.8;">
			<rect x="594.396" y="235.563" style="fill:#D2EAFF;" width="941.437" height="234.765"/>
		</g>
		<g style="opacity:0.8;">
			<rect x="594.396" y="513.869" style="fill:#D2EAFF;" width="941.437" height="234.765"/>
		</g>
		<g>
			<rect x="627.35" y="274.3" style="fill:#D2EAFF;" width="41.606" height="193.159"/>
		</g>
		<g>
			<rect x="739.589" y="274.3" style="fill:#D2EAFF;" width="41.606" height="193.159"/>
		</g>
		<g>
			<rect x="795.708" y="274.3" style="fill:#D2EAFF;" width="41.606" height="193.159"/>
		</g>
		<g>
			<rect x="907.948" y="274.3" style="fill:#D2EAFF;" width="41.606" height="193.159"/>
		</g>
		<g>
			<rect x="964.067" y="274.3" style="fill:#D2EAFF;" width="41.606" height="193.159"/>
		</g>
		<g>
			<rect x="1076.306" y="274.3" style="fill:#D2EAFF;" width="41.606" height="193.159"/>
		</g>
		<g>
			<rect x="1188.546" y="274.3" style="fill:#D2EAFF;" width="41.606" height="193.159"/>
		</g>
		<g>
			<rect x="1244.665" y="274.3" style="fill:#D2EAFF;" width="41.606" height="193.159"/>
		</g>
		<g>
			<rect x="1356.904" y="274.3" style="fill:#D2EAFF;" width="41.606" height="193.159"/>
		</g>
		<g style="opacity:0.3;">
			<g>
				<rect x="683.469" y="274.3" style="fill:#D2EAFF;" width="41.606" height="193.159"/>
			</g>
			<g>
				<rect x="851.828" y="274.3" style="fill:#D2EAFF;" width="41.606" height="193.159"/>
			</g>
			<g>
				<rect x="1020.187" y="274.3" style="fill:#D2EAFF;" width="41.606" height="193.159"/>
			</g>
			<g>
				<rect x="1132.426" y="274.3" style="fill:#D2EAFF;" width="41.606" height="193.159"/>
			</g>
			<g>
				<rect x="1300.785" y="274.3" style="fill:#D2EAFF;" width="41.606" height="193.159"/>
			</g>
			<g>
				<rect x="1413.024" y="274.3" style="fill:#D2EAFF;" width="41.606" height="193.159"/>
			</g>
		</g>
		<g>
			<rect x="1469.143" y="274.3" style="fill:#D2EAFF;" width="41.606" height="193.159"/>
		</g>
		<g>
			<g>
				<rect x="627.35" y="555.474" style="fill:#D2EAFF;" width="41.606" height="193.159"/>
			</g>
			<g style="opacity:0.6;">
				<g>
					<rect x="683.469" y="555.474" style="fill:#D2EAFF;" width="41.606" height="193.159"/>
				</g>
			</g>
			<g>
				<rect x="739.589" y="555.474" style="fill:#D2EAFF;" width="41.606" height="193.159"/>
			</g>
			<g style="opacity:0.6;">
				<g>
					<rect x="795.708" y="555.474" style="fill:#D2EAFF;" width="41.606" height="193.159"/>
				</g>
			</g>
			<g>
				<rect x="851.828" y="555.474" style="fill:#D2EAFF;" width="41.606" height="193.159"/>
			</g>
			<g>
				<rect x="907.948" y="555.474" style="fill:#D2EAFF;" width="41.606" height="193.159"/>
			</g>
			<g>
				<rect x="964.067" y="555.474" style="fill:#D2EAFF;" width="41.606" height="193.159"/>
			</g>
			<g style="opacity:0.6;">
				<g>
					<rect x="1020.187" y="555.474" style="fill:#D2EAFF;" width="41.606" height="193.159"/>
				</g>
			</g>
			<g>
				<rect x="1076.306" y="555.474" style="fill:#D2EAFF;" width="41.606" height="193.159"/>
			</g>
			<g>
				<rect x="1132.426" y="555.474" style="fill:#D2EAFF;" width="41.606" height="193.159"/>
			</g>
			<g style="opacity:0.6;">
				<g>
					<rect x="1188.546" y="555.474" style="fill:#D2EAFF;" width="41.606" height="193.159"/>
				</g>
			</g>
			<g style="opacity:0.6;">
				<g>
					<rect x="1244.665" y="555.474" style="fill:#D2EAFF;" width="41.606" height="193.159"/>
				</g>
			</g>
			<g>
				<rect x="1300.785" y="555.474" style="fill:#D2EAFF;" width="41.606" height="193.159"/>
			</g>
			<g>
				<rect x="1356.904" y="555.474" style="fill:#D2EAFF;" width="41.606" height="193.159"/>
			</g>
			<g>
				<rect x="1413.024" y="555.474" style="fill:#D2EAFF;" width="41.606" height="193.159"/>
			</g>
			<g style="opacity:0.6;">
				<g>
					<rect x="1469.143" y="555.474" style="fill:#D2EAFF;" width="41.606" height="193.159"/>
				</g>
			</g>
		</g>
		<g>
			<g>
				<rect x="627.35" y="836.649" style="fill:#D2EAFF;" width="41.606" height="193.159"/>
			</g>
			<g style="opacity:0.6;">
				<g>
					<rect x="683.469" y="836.649" style="fill:#D2EAFF;" width="41.606" height="193.159"/>
				</g>
			</g>
			<g>
				<rect x="739.589" y="836.649" style="fill:#D2EAFF;" width="41.606" height="193.159"/>
			</g>
			<g style="opacity:0.6;">
				<g>
					<rect x="795.708" y="836.649" style="fill:#D2EAFF;" width="41.606" height="193.159"/>
				</g>
			</g>
			<g>
				<rect x="851.828" y="836.649" style="fill:#D2EAFF;" width="41.606" height="193.159"/>
			</g>
			<g style="opacity:0.6;">
				<g>
					<rect x="907.948" y="836.649" style="fill:#D2EAFF;" width="41.606" height="193.159"/>
				</g>
			</g>
			<g>
				<rect x="964.067" y="836.649" style="fill:#D2EAFF;" width="41.606" height="193.159"/>
			</g>
			<g style="opacity:0.6;">
				<g>
					<rect x="1020.187" y="836.649" style="fill:#D2EAFF;" width="41.606" height="193.159"/>
				</g>
			</g>
			<g>
				<rect x="1076.306" y="836.649" style="fill:#D2EAFF;" width="41.606" height="193.159"/>
			</g>
			<g style="opacity:0.6;">
				<g>
					<rect x="1132.426" y="836.649" style="fill:#D2EAFF;" width="41.606" height="193.159"/>
				</g>
			</g>
			<g style="opacity:0.6;">
				<g>
					<rect x="1188.546" y="836.649" style="fill:#D2EAFF;" width="41.606" height="193.159"/>
				</g>
			</g>
			<g>
				<rect x="1244.665" y="836.649" style="fill:#D2EAFF;" width="41.606" height="193.159"/>
			</g>
			<g>
				<rect x="1300.785" y="836.649" style="fill:#D2EAFF;" width="41.606" height="193.159"/>
			</g>
			<g>
				<rect x="1356.904" y="836.649" style="fill:#D2EAFF;" width="41.606" height="193.159"/>
			</g>
			<g style="opacity:0.6;">
				<g>
					<rect x="1413.024" y="836.649" style="fill:#D2EAFF;" width="41.606" height="193.159"/>
				</g>
			</g>
			<g>
				<rect x="1469.143" y="836.649" style="fill:#D2EAFF;" width="41.606" height="193.159"/>
			</g>
		</g>
		<g>
			<g style="opacity:0.6;">
				<g>
					<rect x="627.35" y="1117.824" style="fill:#D2EAFF;" width="41.606" height="193.159"/>
				</g>
			</g>
			<g>
				<rect x="683.469" y="1117.824" style="fill:#D2EAFF;" width="41.606" height="193.159"/>
			</g>
			<g style="opacity:0.6;">
				<g>
					<rect x="739.589" y="1117.824" style="fill:#D2EAFF;" width="41.606" height="193.159"/>
				</g>
			</g>
			<g>
				<rect x="795.708" y="1117.824" style="fill:#D2EAFF;" width="41.606" height="193.159"/>
			</g>
			<g>
				<rect x="851.828" y="1117.824" style="fill:#D2EAFF;" width="41.606" height="193.159"/>
			</g>
			<g>
				<rect x="907.948" y="1117.824" style="fill:#D2EAFF;" width="41.606" height="193.159"/>
			</g>
			<g>
				<rect x="964.067" y="1117.824" style="fill:#D2EAFF;" width="41.606" height="193.159"/>
			</g>
			<g>
				<rect x="1020.187" y="1117.824" style="fill:#D2EAFF;" width="41.606" height="193.159"/>
			</g>
			<g>
				<rect x="1076.306" y="1117.824" style="fill:#D2EAFF;" width="41.606" height="193.159"/>
			</g>
			<g>
				<rect x="1132.426" y="1117.824" style="fill:#D2EAFF;" width="41.606" height="193.159"/>
			</g>
			<g>
				<rect x="1188.546" y="1117.824" style="fill:#D2EAFF;" width="41.606" height="193.159"/>
			</g>
			<g>
				<rect x="1244.665" y="1117.824" style="fill:#D2EAFF;" width="41.606" height="193.159"/>
			</g>
			<g>
				<rect x="1300.785" y="1117.824" style="fill:#D2EAFF;" width="41.606" height="193.159"/>
			</g>
			<g>
				<rect x="1356.904" y="1117.824" style="fill:#D2EAFF;" width="41.606" height="193.159"/>
			</g>
			<g>
				<rect x="1413.024" y="1117.824" style="fill:#D2EAFF;" width="41.606" height="193.159"/>
			</g>
			<g>
				<rect x="1469.143" y="1117.824" style="fill:#D2EAFF;" width="41.606" height="193.159"/>
			</g>
		</g>
		<g>
			<g style="opacity:0.6;">
				<g>
					<rect x="627.35" y="1398.999" style="fill:#D2EAFF;" width="41.606" height="193.159"/>
				</g>
			</g>
			<g>
				<rect x="683.469" y="1398.999" style="fill:#D2EAFF;" width="41.606" height="193.159"/>
			</g>
			<g style="opacity:0.6;">
				<g>
					<rect x="739.589" y="1398.999" style="fill:#D2EAFF;" width="41.606" height="193.159"/>
				</g>
			</g>
			<g>
				<rect x="795.708" y="1398.999" style="fill:#D2EAFF;" width="41.606" height="193.159"/>
			</g>
			<g>
				<rect x="851.828" y="1398.999" style="fill:#D2EAFF;" width="41.606" height="193.159"/>
			</g>
			<g>
				<rect x="907.948" y="1398.999" style="fill:#D2EAFF;" width="41.606" height="193.159"/>
			</g>
			<g>
				<rect x="964.067" y="1398.999" style="fill:#D2EAFF;" width="41.606" height="193.159"/>
			</g>
			<g>
				<rect x="1020.187" y="1398.999" style="fill:#D2EAFF;" width="41.606" height="193.159"/>
			</g>
			<g>
				<rect x="1076.306" y="1398.999" style="fill:#D2EAFF;" width="41.606" height="193.159"/>
			</g>
			<g>
				<rect x="1132.426" y="1398.999" style="fill:#D2EAFF;" width="41.606" height="193.159"/>
			</g>
			<g>
				<rect x="1188.546" y="1398.999" style="fill:#D2EAFF;" width="41.606" height="193.159"/>
			</g>
			<g>
				<rect x="1244.665" y="1398.999" style="fill:#D2EAFF;" width="41.606" height="193.159"/>
			</g>
			<g>
				<rect x="1300.785" y="1398.999" style="fill:#D2EAFF;" width="41.606" height="193.159"/>
			</g>
			<g>
				<rect x="1356.904" y="1398.999" style="fill:#D2EAFF;" width="41.606" height="193.159"/>
			</g>
			<g>
				<rect x="1413.024" y="1398.999" style="fill:#D2EAFF;" width="41.606" height="193.159"/>
			</g>
			<g>
				<rect x="1469.143" y="1398.999" style="fill:#D2EAFF;" width="41.606" height="193.159"/>
			</g>
		</g>
	</g>
	<g>
		<ellipse style="fill:#7FC6A6;" cx="1392.34" cy="1776.544" rx="961.56" ry="40.707"/>
	</g>
	<g>
		<g>
			<g>
				<g>
					<path style="fill:#258D8C;" d="M628.638,1101.459c0,0-7.13,58.823-16.043,85.561c-8.913,26.738-17.376,52.287-10.768,116.458
						c6.608,64.17,10.713,69.518,12.226,86.155c1.512,16.637-0.864,86.765,2.701,98.344c3.565,11.578-20.796,91.792-22.579,126.254
						c-0.535,10.355-1.499,22.161-2.361,34.204h4.362c1.437-14.682,4.261-30.901,9.289-47.869
						c19.013-64.171,10.695-72.474,42.78-112.588c32.085-40.115,34.462-123.299,34.462-123.299s15.448-94.474,0-136.066
						C667.26,1187.021,666.071,1145.428,628.638,1101.459z"/>
				</g>
			</g>
		</g>
		<g>
			<g>
				<g>
					<path style="fill:#258D8C;" d="M528.223,1427.958c15.151-32.085-7.13-114.973,14.44-151.925
						c21.57-36.953,10.516-94.954,5.554-117.235c-4.961-22.281,0.505-37.433,4.961-60.924c4.456-23.491-4.961-57.614-4.961-57.614
						c-0.802,29.115-22.964,68.924-39.007,94.474c-16.043,25.549-46.345,95.068-42.781,126.559
						c3.565,31.491,1.782,33.868,1.782,33.868c-11.289,42.186,0,54.07-3.565,99.821c-3.565,45.752,25.549,42.186,26.738,71.301
						c1.188,29.115,39.215,78.431,56.832,113.487c9.163,18.233,12.546,46.108,13.685,68.665h14.155
						c-5.475-57.091-28.639-96.83-42.485-128.677C515.745,1478.76,513.071,1460.043,528.223,1427.958z"/>
				</g>
			</g>
		</g>
		<g>
			<g>
				<g>
					<path style="fill:#7FC6A6;" d="M730.871,1339.606c-3.629,15.454-4.397,26.12-13.414,38.302
						c-9.017,12.181-31.361,44.392-28.236,72.627c3.125,28.235-32.74,72.518-32.197,96.07c0.543,23.552-6.125,34.187-27.993,54.256
						c-16.987,15.59-41.754,33.455-60.467,66.618l8.588,3.816c6.772-13.379,16.339-29.38,26.814-37.972
						c20.14-16.52,56.507-36.19,65.077-53.535c8.57-17.344,25.273-7.332,35.445-36.052c10.171-28.719,20.224-32.886,24.748-61.525
						c0,0-0.441-1.922,10.212-20.068c10.653-18.145,11.009-68.494,8.163-88.32c-2.845-19.826-5.56-49.955,1.802-67.836
						C749.413,1305.987,734.5,1324.152,730.871,1339.606z"/>
				</g>
			</g>
		</g>
		<g>
			<g>
				<g>
					<path style="fill:#7FC6A6;" d="M508.097,1600.86c-21.868-20.069-28.536-30.704-27.993-54.256
						c0.543-23.552-35.321-67.835-32.197-96.07c3.125-28.235-19.219-60.446-28.236-72.627c-9.017-12.181-9.785-22.848-13.414-38.302
						c-3.629-15.454-18.543-33.618-18.543-33.618c7.362,17.881,4.648,48.009,1.803,67.836c-2.846,19.827-2.49,70.175,8.163,88.32
						c10.653,18.146,10.212,20.068,10.212,20.068c4.524,28.639,14.577,32.806,24.748,61.525
						c10.171,28.72,26.875,18.708,35.444,36.052c8.57,17.345,44.937,37.014,65.077,53.535c10.475,8.592,20.043,24.593,26.814,37.972
						l8.588-3.816C549.851,1634.316,525.083,1616.45,508.097,1600.86z"/>
				</g>
			</g>
		</g>
		<g>
			<g>
				<g>
					<path d="M518.515,1608.84c-3.474-3.022-6.753-5.877-9.791-8.663c-21.255-19.51-28.235-29.983-27.691-53.551
						c0.254-11.005-7.156-26.189-14.997-42.265c-9.278-19.015-18.871-38.679-17.206-53.725
						c2.777-25.095-13.918-53.701-28.411-73.282c-7.196-9.72-9.064-18.52-11.431-29.66c-0.557-2.625-1.141-5.376-1.828-8.3
						c-3.635-15.487-18.112-33.246-18.726-33.996l-3.942-4.799l2.365,5.743c5.532,13.437,6.135,36.727,1.741,67.349
						c-3.042,21.195-2.209,71.055,8.28,88.923c9.78,16.658,10.079,19.463,10.089,19.575l0.925,0.022l-0.905-0.207l1.81,0.414
						c0.332-1.449-3.428-9.011-10.315-20.743c-10.286-17.52-11.054-66.752-8.044-87.719c3.958-27.594,3.952-48.693-0.004-62.863
						c4.596,6.329,12.456,18.24,14.919,28.726c0.682,2.909,1.264,5.648,1.819,8.26c2.413,11.362,4.317,20.337,11.752,30.382
						c20.502,27.694,30.204,52.582,28.059,71.972c-1.723,15.579,7.99,35.489,17.382,54.743c7.742,15.868,15.053,30.856,14.81,41.407
						c-0.561,24.288,6.572,35.026,28.293,54.962c3.055,2.804,6.345,5.667,9.827,8.698c15.501,13.49,34.752,30.242,49.956,56.805
						l-6.847,3.042c-6.358-12.452-16.02-28.763-26.653-37.485l-1.179,1.437c10.609,8.703,20.308,25.291,26.575,37.674l0.399,0.789
						l10.33-4.591l-0.502-0.891C553.938,1639.667,534.295,1622.575,518.515,1608.84z"/>
				</g>
			</g>
		</g>
		<g>
			<g>
				<g>
					<path d="M542.607,1537.319c-2.935-6.289-5.706-12.231-8.184-17.932c-17.389-39.994-20.602-58.757-5.36-91.032
						c7.03-14.888,6.122-40.262,5.162-67.128c-1.143-31.915-2.324-64.917,9.24-84.728c15.111-25.889,17.069-66.66,5.659-117.903
						c-3.982-17.881-1.161-31.18,2.409-48.019c0.844-3.976,1.714-8.088,2.558-12.532c4.446-23.432-4.883-57.69-4.977-58.033
						l-1.654-5.987l-0.17,6.209c-0.604,21.966-14.045,54.472-38.866,94.005c-17.117,27.266-46.415,96.253-42.916,127.158l1.846-0.21
						c-3.455-30.502,25.646-98.889,42.644-125.961c23.209-36.967,36.21-66.863,38.72-89.005c2.422,10.683,6.835,34.155,3.548,51.479
						c-0.84,4.422-1.709,8.525-2.55,12.492c-3.617,17.058-6.474,30.533-2.405,48.806c11.306,50.779,9.421,91.087-5.449,116.565
						c-11.836,20.275-10.644,53.549-9.494,85.729c0.952,26.633,1.854,51.789-4.984,66.268
						c-15.549,32.929-12.305,51.993,5.334,92.567c2.49,5.725,5.266,11.676,8.206,17.977c13.151,28.186,29.492,63.213,34.108,109.402
						h-12.249c-1.11-21.025-4.404-49.586-13.736-68.154l-1.658,0.834c9.318,18.539,12.53,47.373,13.586,68.296l0.043,0.882h16.06
						l-0.096-1.018C572.474,1601.336,555.913,1565.841,542.607,1537.319z"/>
				</g>
			</g>
		</g>
		<g>
			<g>
				<g>
					<path style="fill:#7FC6A6;" d="M512.141,1235.703c0,0-11.883,53.475-2.971,82.59c8.912,29.115,19.608,51.693,19.013,95.662
						c-0.594,43.969,33.868,60.606,33.274,84.967c-0.594,24.361,7.13,50.505,13.666,70.113c4.137,12.413,1.847,46.968,1.115,79.4
						h9.563c2.408-23.833,5.047-58.219,4.177-73.459c-1.189-20.796,8.318-37.433,9.507-73.678
						c1.188-36.245,8.913-68.924-7.13-114.676C576.312,1340.872,579.283,1286.208,512.141,1235.703z"/>
				</g>
			</g>
		</g>
		<g>
			<g>
				<g>
					<path d="M592.671,1544.972c-2.253,10.686-4.201,19.916-3.62,30.056c0.852,14.915-1.651,48.155-4.089,72.479h-7.773
						c0.151-6.399,0.357-12.871,0.561-19.23c0.818-25.472,1.589-49.533-1.745-59.535c-6.648-19.943-14.203-45.898-13.619-69.797
						c0.261-10.74-5.977-19.838-13.198-30.373c-9.568-13.956-20.411-29.773-20.076-54.603c0.49-36.354-6.666-58.035-14.241-80.989
						c-1.594-4.828-3.243-9.822-4.814-14.957c-7.934-25.915,0.905-72.024,2.688-80.696c50.458,38.469,60.614,80.044,69.585,116.761
						c2.802,11.467,5.449,22.3,9.147,32.844l1.752-0.613c-3.667-10.461-6.303-21.25-9.095-32.672
						c-9.113-37.298-19.443-79.574-71.438-118.685l-1.152-0.867l-0.314,1.408c-0.12,0.537-11.832,54.052-2.953,83.064
						c1.578,5.155,3.231,10.158,4.827,14.995c7.526,22.802,14.634,44.34,14.148,80.382c-0.345,25.419,10.676,41.496,20.401,55.678
						c7.04,10.27,13.12,19.138,12.873,29.279c-0.59,24.185,7.018,50.342,13.713,70.429c3.229,9.686,2.463,33.586,1.652,58.887
						c-0.214,6.681-0.432,13.484-0.584,20.198l-0.022,0.951h11.353l0.084-0.836c2.47-24.458,5.048-58.412,4.179-73.605
						c-0.564-9.895,1.359-19.011,3.584-29.568c2.487-11.792,5.306-25.158,5.926-44.026l-1.857-0.062
						C597.944,1519.972,595.143,1533.253,592.671,1544.972z"/>
				</g>
			</g>
		</g>
		<g>
			<g>
				<g>
					<path d="M672.664,1192.621c-8.092-29.604-16.459-60.215-43.319-91.763l-1.375-1.615l-0.254,2.104
						c-0.073,0.588-7.221,59.038-16.002,85.379c-8.975,26.925-17.453,52.355-10.811,116.847l1.846-0.189
						c-6.599-64.097,1.816-89.342,10.727-116.071c7.883-23.653,14.44-72.854,15.817-83.632
						c25.518,30.667,33.678,60.531,41.579,89.429c3.211,11.745,6.53,23.889,10.963,35.824
						c15.186,40.885,0.109,134.652-0.058,135.717c-0.024,0.829-2.732,83.329-34.258,122.744
						c-22.372,27.972-25.329,41.059-31.22,67.133c-2.628,11.632-5.899,26.107-11.725,45.773c-4.5,15.187-7.607,31.066-9.24,47.204
						h-2.523c0.214-2.955,0.432-5.895,0.648-8.799c0.646-8.687,1.255-16.893,1.643-24.429c0.883-17.049,7.41-45.758,13.169-71.091
						c6.029-26.519,11.237-49.422,9.37-55.484l-1.774,0.548c1.72,5.587-3.686,29.358-9.407,54.525
						c-5.775,25.405-12.322,54.198-13.212,71.408c-0.388,7.515-0.998,15.71-1.642,24.385c-0.241,3.232-0.484,6.506-0.72,9.799
						l-0.071,0.996h6.202l0.083-0.838c1.594-16.31,4.709-32.358,9.254-47.698c5.844-19.722,9.122-34.231,11.756-45.889
						c6.011-26.604,8.754-38.746,30.859-66.382c31.91-39.896,34.641-123.017,34.652-123.728
						c0.156-0.949,15.311-95.197-0.045-136.541C679.174,1216.43,675.866,1204.326,672.664,1192.621z"/>
				</g>
			</g>
		</g>
		<g>
			<g>
				<g>
					<path d="M729.968,1339.394c-0.688,2.924-1.272,5.677-1.83,8.304c-2.366,11.139-4.232,19.938-11.429,29.657
						c-14.493,19.581-31.188,48.188-28.411,73.282l1.846-0.203c-2.146-19.39,7.557-44.278,28.059-71.972
						c7.435-10.045,9.34-19.019,11.752-30.379c0.555-2.612,1.138-5.353,1.819-8.264c2.463-10.486,10.323-22.398,14.921-28.726
						c-3.96,14.174-3.963,35.272-0.004,62.863c3.009,20.968,2.238,70.2-8.046,87.719c-6.47,11.021-10.181,18.362-10.332,20.413
						c-2.63,16.646-7.197,25.033-12.487,34.743c-3.745,6.878-7.992,14.672-12.215,26.597c-5.696,16.083-13.308,19.659-20.671,23.116
						c-5.619,2.639-10.927,5.133-14.73,12.833c-5.694,11.524-23.972,24.152-41.647,36.363c-8.563,5.915-16.649,11.502-23.188,16.865
						c-10.629,8.719-20.294,25.031-26.653,37.485l-6.846-3.042c15.202-26.562,34.453-43.315,49.956-56.805
						c3.483-3.031,6.771-5.894,9.826-8.698l-1.255-1.367c-3.036,2.786-6.318,5.641-9.791,8.663
						c-15.781,13.734-35.421,30.827-50.857,58.181l-0.502,0.891l10.328,4.591l0.399-0.789c6.27-12.385,15.971-28.977,26.575-37.674
						c6.479-5.315,14.535-10.881,23.065-16.773c17.87-12.347,36.348-25.113,42.256-37.068c3.517-7.119,8.308-9.369,13.856-11.975
						c7.348-3.45,15.675-7.362,21.632-24.177c4.172-11.785,8.38-19.512,12.093-26.328c5.373-9.866,10.015-18.387,12.695-35.363
						l0.027-0.178l-0.011-0.051c0.08-0.481,0.945-3.956,10.08-19.513c10.488-17.865,11.322-67.726,8.282-88.923
						c-4.395-30.616-3.793-53.906,1.739-67.349l2.363-5.743l-3.94,4.799C748.08,1306.147,733.603,1323.907,729.968,1339.394z"/>
				</g>
			</g>
		</g>
		<g>
			<g>
				<g>
					<g>
						<g>
							<path style="fill:#FF424D;" d="M494.621,1616.246c0,0,2.887,158.563,45.357,154.844h33.397h5.362h33.397
								c42.47,3.719,45.357-154.844,45.357-154.844C617.301,1610.172,534.811,1610.172,494.621,1616.246z"/>
						</g>
					</g>
				</g>
			</g>
		</g>
		<g>
			<g>
				<g>
					<g>
						<g>
							
								<rect x="533.433" y="1627.864" transform="matrix(0.726 -0.6877 0.6877 0.726 -996.2642 822.6262)" style="fill:#21111D;" width="1.637" height="67.493"/>
						</g>
					</g>
				</g>
			</g>
		</g>
		<g>
			<g>
				<g>
					<g>
						<g>
							
								<rect x="536.627" y="1663.876" transform="matrix(0.7546 -0.6562 0.6562 0.7546 -972.6847 765.7383)" style="fill:#21111D;" width="1.637" height="38.935"/>
						</g>
					</g>
				</g>
			</g>
		</g>
	</g>
	<g>
		<g>
			<g>
				<g>
					<g>
						<g>
							<path style="fill:#FFFFFF;" d="M2158.826,1643.653c0,0-27.231,68.518-4.392,120.346l-523.547,4.392l-48.314-4.392
								l-42.583-26.384v-40.377l11.837-33.381l38.651-20.204H2158.826z"/>
						</g>
					</g>
				</g>
			</g>
			<g>
				<g>
					<g>
						<g>
							<g>
								<path style="fill:#F75553;" d="M1606.363,1775.061h565.64c3.684,0,6.671-2.986,6.671-6.67s-2.987-6.671-6.671-6.671h-565.64
									c-34.144,0-61.921-25.775-61.921-57.456c0-31.681,27.777-57.455,61.921-57.455h565.64c3.684,0,6.671-2.986,6.671-6.67
									c0-3.684-2.987-6.671-6.671-6.671h-565.64c-41.499,0-75.262,31.759-75.262,70.796
									C1531.102,1743.302,1564.864,1775.061,1606.363,1775.061z"/>
							</g>
						</g>
					</g>
				</g>
			</g>
			<g>
				<g>
					<g>
						<g>
							<path style="fill:#AAC9F8;" d="M2151.141,1705.747h-277.586c-0.819,0-1.482-0.663-1.482-1.482
								c0-0.819,0.663-1.482,1.482-1.482h277.586c0.819,0,1.482,0.663,1.482,1.482
								C2152.623,1705.084,2151.96,1705.747,2151.141,1705.747z"/>
						</g>
					</g>
				</g>
			</g>
			<g>
				<g>
					<g>
						<g>
							<path style="fill:#AAC9F8;" d="M1834.465,1705.747h-269.679c-0.819,0-1.482-0.663-1.482-1.482
								c0-0.819,0.663-1.482,1.482-1.482h269.679c0.819,0,1.482,0.663,1.482,1.482
								C1835.947,1705.084,1835.284,1705.747,1834.465,1705.747z"/>
						</g>
					</g>
				</g>
			</g>
			<g>
				<g>
					<g>
						<g>
							<path style="fill:#AAC9F8;" d="M1710.4,1732.305h-138.368c-0.819,0-1.482-0.663-1.482-1.483c0-0.819,0.663-1.482,1.482-1.482
								H1710.4c0.819,0,1.482,0.663,1.482,1.482C1711.882,1731.642,1711.219,1732.305,1710.4,1732.305z"/>
						</g>
					</g>
				</g>
			</g>
			<g>
				<g>
					<g>
						<g>
							<path style="fill:#AAC9F8;" d="M2151.141,1732.305h-420.442c-0.819,0-1.482-0.663-1.482-1.483
								c0-0.819,0.663-1.482,1.482-1.482h420.442c0.819,0,1.482,0.663,1.482,1.482
								C2152.623,1731.642,2151.96,1732.305,2151.141,1732.305z"/>
						</g>
					</g>
				</g>
			</g>
			<g>
				<g>
					<g>
						<g>
							<g>
								<path style="fill:#21111D;" d="M2172.004,1776.544h-565.64c-42.317,0-76.744-32.425-76.744-72.28
									c0-39.854,34.427-72.278,76.744-72.278h565.64c4.496,0,8.153,3.657,8.153,8.153c0,4.495-3.657,8.153-8.153,8.153
									c-0.819,0-1.482-0.663-1.482-1.483c0-0.819,0.663-1.482,1.482-1.482c2.861,0,5.188-2.328,5.188-5.188
									c0-2.861-2.328-5.188-5.188-5.188h-565.64c-40.682,0-73.779,31.093-73.779,69.313s33.097,69.315,73.779,69.315h565.64
									c2.861,0,5.188-2.328,5.188-5.188c0-2.86-2.328-5.188-5.188-5.188c-0.819,0-1.482-0.663-1.482-1.482
									c0-0.819,0.663-1.482,1.482-1.482c4.496,0,8.153,3.657,8.153,8.153C2180.157,1772.886,2176.5,1776.544,2172.004,1776.544z"
									/>
							</g>
						</g>
					</g>
				</g>
			</g>
			<g>
				<g>
					<g>
						<g>
							<path style="fill:#4CB7D8;" d="M2082.353,1677.692c0,0,17.816,44.379,7.547,77.051l-14.474-22.368
								c0,0-9.883,11.859-15.943,22.368c0,0-11.053-72.967-32.481-77.051H2082.353z"/>
						</g>
					</g>
				</g>
			</g>
			<g>
				<g>
					<g>
						<g>
							<path style="fill:#AAC9F8;" d="M2151.141,1679.175h-579.109c-0.819,0-1.482-0.663-1.482-1.482
								c0-0.819,0.663-1.482,1.482-1.482h579.109c0.819,0,1.482,0.663,1.482,1.482
								C2152.623,1678.512,2151.96,1679.175,2151.141,1679.175z"/>
						</g>
					</g>
				</g>
			</g>
		</g>
		<g>
			<g>
				<g>
					<g>
						<path style="fill:#FFFFFF;" d="M1469.547,1511.511c0,0,25.273,63.59,4.076,111.69l485.891,4.076l44.839-4.076l39.52-24.486
							v-37.473l-10.986-30.98l-35.871-18.751H1469.547z"/>
					</g>
				</g>
			</g>
		</g>
		<g>
			<g>
				<g>
					<g>
						<g>
							<path style="fill:#49263E;" d="M1982.274,1633.468h-524.956c-3.419,0-6.191-2.772-6.191-6.191
								c0-3.419,2.772-6.191,6.191-6.191h524.956c31.688,0,57.467-23.921,57.467-53.323c0-29.403-25.779-53.322-57.467-53.322
								h-524.956c-3.419,0-6.191-2.772-6.191-6.191c0-3.419,2.772-6.191,6.191-6.191h524.956c38.514,0,69.848,29.475,69.848,65.704
								C2052.122,1603.994,2020.788,1633.468,1982.274,1633.468z"/>
						</g>
					</g>
				</g>
			</g>
		</g>
		<g>
			<g>
				<g>
					<g>
						<path style="fill:#AAC9F8;" d="M1883.619,1569.247H1626c-0.819,0-1.482-0.663-1.482-1.482c0-0.819,0.663-1.482,1.482-1.482
							h257.62c0.819,0,1.482,0.663,1.482,1.482C1885.102,1568.584,1884.439,1569.247,1883.619,1569.247z"/>
					</g>
				</g>
			</g>
		</g>
		<g>
			<g>
				<g>
					<g>
						<path style="fill:#AAC9F8;" d="M2020.861,1569.247H1770.58c-0.819,0-1.482-0.663-1.482-1.482c0-0.819,0.663-1.482,1.482-1.482
							h250.281c0.819,0,1.482,0.663,1.482,1.482C2022.344,1568.584,2021.681,1569.247,2020.861,1569.247z"/>
					</g>
				</g>
			</g>
		</g>
		<g>
			<g>
				<g>
					<g>
						<path style="fill:#AAC9F8;" d="M2014.136,1593.894h-128.415c-0.819,0-1.482-0.663-1.482-1.482
							c0-0.819,0.663-1.482,1.482-1.482h128.415c0.82,0,1.482,0.663,1.482,1.482
							C2015.618,1593.231,2014.955,1593.894,2014.136,1593.894z"/>
					</g>
				</g>
			</g>
		</g>
		<g>
			<g>
				<g>
					<g>
						<path style="fill:#AAC9F8;" d="M2014.136,1544.585h-537.455c-0.819,0-1.482-0.663-1.482-1.482
							c0-0.819,0.663-1.482,1.482-1.482h537.455c0.82,0,1.482,0.663,1.482,1.482
							C2015.618,1543.922,2014.955,1544.585,2014.136,1544.585z"/>
					</g>
				</g>
			</g>
		</g>
		<g>
			<g>
				<g>
					<g>
						<g>
							<path style="fill:#21111D;" d="M1982.274,1634.952h-524.957c-4.23,0-7.672-3.443-7.672-7.674s3.443-7.674,7.672-7.674
								c0.819,0,1.482,0.663,1.482,1.482s-0.663,1.482-1.482,1.482c-2.596,0-4.708,2.112-4.708,4.709
								c0,2.597,2.112,4.709,4.708,4.709h524.957c37.697,0,68.366-28.811,68.366-64.223c0-35.412-30.669-64.221-68.366-64.221
								h-524.957c-2.596,0-4.708,2.112-4.708,4.708c0,2.597,2.112,4.709,4.708,4.709c0.819,0,1.482,0.663,1.482,1.482
								c0,0.819-0.663,1.482-1.482,1.482c-4.23,0-7.672-3.442-7.672-7.674c0-4.23,3.443-7.672,7.672-7.672h524.957
								c39.332,0,71.331,30.139,71.331,67.185C2053.605,1604.811,2021.606,1634.952,1982.274,1634.952z"/>
						</g>
					</g>
				</g>
			</g>
		</g>
		<g>
			<g>
				<g>
					<g>
						<path style="fill:#FEC786;" d="M1783.82,1592.412c0,0-17.817,44.379-7.547,77.051l14.475-22.368
							c0,0,9.882,11.859,15.943,22.368c0,0,11.054-72.967,32.481-77.051H1783.82z"/>
					</g>
				</g>
			</g>
		</g>
		<g>
			<g>
				<g>
					<g>
						<path style="fill:#AAC9F8;" d="M1866.881,1593.894h-390.201c-0.819,0-1.482-0.663-1.482-1.482
							c0-0.819,0.663-1.482,1.482-1.482h390.201c0.819,0,1.482,0.663,1.482,1.482
							C1868.364,1593.231,1867.701,1593.894,1866.881,1593.894z"/>
					</g>
				</g>
			</g>
		</g>
	</g>
	<g>
		<g>
			<g>
				<g>
					<g>
						<g>
							<path style="fill:#FFFFFF;" d="M2131.128,1370.391c0,0-27.232,68.518-4.392,120.346l-523.547,4.392l-48.314-4.392
								l-42.583-26.384v-40.377l11.837-33.381l38.651-20.204H2131.128z"/>
						</g>
					</g>
				</g>
			</g>
			<g>
				<g>
					<g>
						<g>
							<g>
								<path style="fill:#F7597F;" d="M1578.665,1501.8h565.64c3.684,0,6.671-2.986,6.671-6.671c0-3.684-2.987-6.671-6.671-6.671
									h-565.64c-34.144,0-61.92-25.775-61.92-57.456c0-31.681,27.777-57.454,61.92-57.454h565.64c3.684,0,6.671-2.986,6.671-6.671
									c0-3.684-2.987-6.671-6.671-6.671h-565.64c-41.499,0-75.262,31.759-75.262,70.796
									C1503.403,1470.041,1537.166,1501.8,1578.665,1501.8z"/>
							</g>
						</g>
					</g>
				</g>
			</g>
			<g>
				<g>
					<g>
						<g>
							<path style="fill:#AAC9F8;" d="M2123.443,1432.486h-277.586c-0.819,0-1.482-0.663-1.482-1.482s0.663-1.482,1.482-1.482
								h277.586c0.82,0,1.482,0.663,1.482,1.482S2124.262,1432.486,2123.443,1432.486z"/>
						</g>
					</g>
				</g>
			</g>
			<g>
				<g>
					<g>
						<g>
							<path style="fill:#AAC9F8;" d="M1806.766,1432.486h-269.679c-0.819,0-1.482-0.663-1.482-1.482s0.663-1.482,1.482-1.482
								h269.679c0.819,0,1.482,0.663,1.482,1.482S1807.586,1432.486,1806.766,1432.486z"/>
						</g>
					</g>
				</g>
			</g>
			<g>
				<g>
					<g>
						<g>
							<path style="fill:#AAC9F8;" d="M1682.701,1459.044h-138.368c-0.819,0-1.482-0.663-1.482-1.483s0.663-1.482,1.482-1.482
								h138.368c0.819,0,1.482,0.663,1.482,1.482S1683.521,1459.044,1682.701,1459.044z"/>
						</g>
					</g>
				</g>
			</g>
			<g>
				<g>
					<g>
						<g>
							<path style="fill:#AAC9F8;" d="M2123.443,1459.044h-420.441c-0.819,0-1.482-0.663-1.482-1.483s0.663-1.482,1.482-1.482
								h420.441c0.82,0,1.482,0.663,1.482,1.482S2124.262,1459.044,2123.443,1459.044z"/>
						</g>
					</g>
				</g>
			</g>
			<g>
				<g>
					<g>
						<g>
							<g>
								<path style="fill:#21111D;" d="M2144.306,1503.283h-565.641c-42.317,0-76.744-32.425-76.744-72.28
									s34.427-72.278,76.744-72.278h565.641c4.496,0,8.153,3.657,8.153,8.153c0,4.495-3.657,8.153-8.153,8.153
									c-0.82,0-1.483-0.663-1.483-1.482s0.663-1.482,1.483-1.482c2.86,0,5.188-2.328,5.188-5.188s-2.328-5.188-5.188-5.188
									h-565.641c-40.682,0-73.779,31.093-73.779,69.313c0,38.22,33.097,69.315,73.779,69.315h565.641
									c2.86,0,5.188-2.328,5.188-5.188c0-2.86-2.328-5.188-5.188-5.188c-0.82,0-1.483-0.663-1.483-1.482s0.663-1.482,1.483-1.482
									c4.496,0,8.153,3.656,8.153,8.153C2152.459,1499.625,2148.802,1503.283,2144.306,1503.283z"/>
							</g>
						</g>
					</g>
				</g>
			</g>
			<g>
				<g>
					<g>
						<g>
							<path style="fill:#7FC6A6;" d="M2054.655,1404.431c0,0,17.817,44.379,7.547,77.051l-14.474-22.369
								c0,0-9.882,11.859-15.943,22.369c0,0-11.054-72.967-32.481-77.051H2054.655z"/>
						</g>
					</g>
				</g>
			</g>
			<g>
				<g>
					<g>
						<g>
							<path style="fill:#AAC9F8;" d="M2123.443,1405.913h-579.109c-0.819,0-1.482-0.663-1.482-1.482
								c0-0.819,0.663-1.482,1.482-1.482h579.109c0.82,0,1.482,0.663,1.482,1.482
								C2124.925,1405.25,2124.262,1405.913,2123.443,1405.913z"/>
						</g>
					</g>
				</g>
			</g>
		</g>
		<g>
			<g>
				<g>
					<g>
						<g>
							<path style="fill:#FFFFFF;" d="M2049.346,1097.252c0,0-27.231,68.518-4.392,120.346l-523.547,4.392l-48.314-4.392
								l-42.583-26.384v-40.377l11.837-33.381l38.651-20.204H2049.346z"/>
						</g>
					</g>
				</g>
			</g>
			<g>
				<g>
					<g>
						<g>
							<g>
								<path style="fill:#FEC786;" d="M1496.883,1228.66h565.64c3.684,0,6.671-2.986,6.671-6.671s-2.986-6.671-6.671-6.671h-565.64
									c-34.144,0-61.92-25.775-61.92-57.456c0-31.681,27.777-57.454,61.92-57.454h565.64c3.684,0,6.671-2.986,6.671-6.671
									s-2.986-6.671-6.671-6.671h-565.64c-41.499,0-75.262,31.759-75.262,70.796
									C1421.621,1196.901,1455.384,1228.66,1496.883,1228.66z"/>
							</g>
						</g>
					</g>
				</g>
			</g>
			<g>
				<g>
					<g>
						<g>
							<path style="fill:#AAC9F8;" d="M2041.661,1159.346h-277.586c-0.819,0-1.482-0.663-1.482-1.482
								c0-0.819,0.663-1.482,1.482-1.482h277.586c0.82,0,1.483,0.663,1.483,1.482
								C2043.143,1158.683,2042.48,1159.346,2041.661,1159.346z"/>
						</g>
					</g>
				</g>
			</g>
			<g>
				<g>
					<g>
						<g>
							<path style="fill:#AAC9F8;" d="M1724.984,1159.346h-269.679c-0.819,0-1.482-0.663-1.482-1.482
								c0-0.819,0.663-1.482,1.482-1.482h269.679c0.819,0,1.482,0.663,1.482,1.482
								C1726.467,1158.683,1725.804,1159.346,1724.984,1159.346z"/>
						</g>
					</g>
				</g>
			</g>
			<g>
				<g>
					<g>
						<g>
							<path style="fill:#AAC9F8;" d="M1600.919,1185.904h-138.368c-0.819,0-1.482-0.663-1.482-1.483
								c0-0.819,0.663-1.482,1.482-1.482h138.368c0.819,0,1.482,0.663,1.482,1.482
								C1602.402,1185.241,1601.739,1185.904,1600.919,1185.904z"/>
						</g>
					</g>
				</g>
			</g>
			<g>
				<g>
					<g>
						<g>
							<path style="fill:#AAC9F8;" d="M2041.661,1185.904h-420.441c-0.819,0-1.482-0.663-1.482-1.483
								c0-0.819,0.663-1.482,1.482-1.482h420.441c0.82,0,1.483,0.663,1.483,1.482
								C2043.143,1185.241,2042.48,1185.904,2041.661,1185.904z"/>
						</g>
					</g>
				</g>
			</g>
			<g>
				<g>
					<g>
						<g>
							<g>
								<path style="fill:#21111D;" d="M2062.524,1230.143h-565.641c-42.317,0-76.744-32.425-76.744-72.28
									c0-39.854,34.427-72.278,76.744-72.278h565.641c4.496,0,8.153,3.657,8.153,8.153c0,4.495-3.657,8.153-8.153,8.153
									c-0.819,0-1.482-0.663-1.482-1.482s0.663-1.482,1.482-1.482c2.861,0,5.188-2.328,5.188-5.188
									c0-2.861-2.328-5.188-5.188-5.188h-565.641c-40.682,0-73.779,31.093-73.779,69.313c0,38.22,33.097,69.315,73.779,69.315
									h565.641c2.861,0,5.188-2.328,5.188-5.188c0-2.86-2.328-5.188-5.188-5.188c-0.819,0-1.482-0.663-1.482-1.482
									c0-0.819,0.663-1.482,1.482-1.482c4.496,0,8.153,3.657,8.153,8.153C2070.677,1226.485,2067.02,1230.143,2062.524,1230.143z"
									/>
							</g>
						</g>
					</g>
				</g>
			</g>
			<g>
				<g>
					<g>
						<g>
							<path style="fill:#FFB357;" d="M1972.873,1131.291c0,0,17.817,44.379,7.547,77.051l-14.475-22.368
								c0,0-9.882,11.859-15.943,22.368c0,0-11.054-72.967-32.481-77.051H1972.873z"/>
						</g>
					</g>
				</g>
			</g>
			<g>
				<g>
					<g>
						<g>
							<path style="fill:#AAC9F8;" d="M2041.661,1132.774h-579.109c-0.819,0-1.482-0.663-1.482-1.482
								c0-0.819,0.663-1.482,1.482-1.482h579.109c0.82,0,1.483,0.663,1.483,1.482
								C2043.143,1132.111,2042.48,1132.774,2041.661,1132.774z"/>
						</g>
					</g>
				</g>
			</g>
		</g>
		<g>
			<g>
				<g>
					<g>
						<path style="fill:#FFFFFF;" d="M1401.016,1238.25c0,0,25.273,63.59,4.076,111.69l485.891,4.076l44.839-4.076l39.52-24.486
							v-37.473l-10.986-30.98l-35.871-18.751H1401.016z"/>
					</g>
				</g>
			</g>
		</g>
		<g>
			<g>
				<g>
					<g>
						<g>
							<path style="fill:#4CB7D8;" d="M1913.743,1360.207h-524.956c-3.419,0-6.191-2.772-6.191-6.191s2.772-6.191,6.191-6.191
								h524.956c31.688,0,57.467-23.921,57.467-53.323c0-29.402-25.779-53.322-57.467-53.322h-524.956
								c-3.419,0-6.191-2.772-6.191-6.191s2.772-6.191,6.191-6.191h524.956c38.514,0,69.848,29.475,69.848,65.704
								C1983.592,1330.732,1952.257,1360.207,1913.743,1360.207z"/>
						</g>
					</g>
				</g>
			</g>
		</g>
		<g>
			<g>
				<g>
					<g>
						<path style="fill:#AAC9F8;" d="M1815.088,1295.986h-257.619c-0.819,0-1.482-0.663-1.482-1.482s0.663-1.482,1.482-1.482
							h257.619c0.819,0,1.482,0.663,1.482,1.482S1815.908,1295.986,1815.088,1295.986z"/>
					</g>
				</g>
			</g>
		</g>
		<g>
			<g>
				<g>
					<g>
						<path style="fill:#AAC9F8;" d="M1952.331,1295.986h-250.281c-0.819,0-1.482-0.663-1.482-1.482s0.663-1.482,1.482-1.482
							h250.281c0.819,0,1.482,0.663,1.482,1.482S1953.15,1295.986,1952.331,1295.986z"/>
					</g>
				</g>
			</g>
		</g>
		<g>
			<g>
				<g>
					<g>
						<path style="fill:#AAC9F8;" d="M1945.605,1320.633H1817.19c-0.819,0-1.482-0.663-1.482-1.482s0.663-1.482,1.482-1.482h128.415
							c0.82,0,1.482,0.663,1.482,1.482S1946.425,1320.633,1945.605,1320.633z"/>
					</g>
				</g>
			</g>
		</g>
		<g>
			<g>
				<g>
					<g>
						<path style="fill:#AAC9F8;" d="M1945.605,1271.324H1408.15c-0.819,0-1.482-0.663-1.482-1.483c0-0.819,0.663-1.482,1.482-1.482
							h537.455c0.82,0,1.482,0.663,1.482,1.482C1947.087,1270.661,1946.425,1271.324,1945.605,1271.324z"/>
					</g>
				</g>
			</g>
		</g>
		<g>
			<g>
				<g>
					<g>
						<g>
							<path style="fill:#21111D;" d="M1913.743,1361.69h-524.957c-4.23,0-7.672-3.442-7.672-7.674s3.443-7.674,7.672-7.674
								c0.819,0,1.482,0.663,1.482,1.482c0,0.819-0.663,1.482-1.482,1.482c-2.596,0-4.708,2.112-4.708,4.709
								s2.112,4.709,4.708,4.709h524.957c37.697,0,68.367-28.811,68.367-64.224c0-35.412-30.669-64.221-68.367-64.221h-524.957
								c-2.596,0-4.708,2.112-4.708,4.708c0,2.597,2.112,4.709,4.708,4.709c0.819,0,1.482,0.663,1.482,1.482
								c0,0.819-0.663,1.482-1.482,1.482c-4.23,0-7.672-3.442-7.672-7.674c0-4.23,3.443-7.672,7.672-7.672h524.957
								c39.332,0,71.331,30.139,71.331,67.185C1985.074,1331.549,1953.075,1361.69,1913.743,1361.69z"/>
						</g>
					</g>
				</g>
			</g>
		</g>
		<g>
			<g>
				<g>
					<g>
						<path style="fill:#FF424D;" d="M1715.289,1319.15c0,0-17.816,44.379-7.547,77.051l14.475-22.368
							c0,0,9.882,11.859,15.943,22.368c0,0,11.053-72.967,32.481-77.051H1715.289z"/>
					</g>
				</g>
			</g>
		</g>
		<g>
			<g>
				<g>
					<g>
						<path style="fill:#AAC9F8;" d="M1798.35,1320.633H1408.15c-0.819,0-1.482-0.663-1.482-1.482s0.663-1.482,1.482-1.482h390.201
							c0.82,0,1.482,0.663,1.482,1.482S1799.17,1320.633,1798.35,1320.633z"/>
					</g>
				</g>
			</g>
		</g>
	</g>
	<g>
		<path style="fill:#FE9F73;" d="M1876.011,909.313l-16.08,6.953l-17.884,8.479c0,0-27.773,4.821-28.175,4.731
			c-0.059-0.013,2.308,4.133,2.308,4.133c-34.459,4.251-143.069,8.712-160.9,10.702c-10.75,1.2-21.079,14.563-27.591,24.992
			l8.828,5.973c0,0,94.849-4.182,94.658-2.191c-0.06,0.629-2.736,10.044-6.892,22.364c58.581,3.916,140.621,3.54,155.855-20.6
			C1892.636,955.045,1880.452,926.617,1876.011,909.313z"/>
		<g>
			<g>
				<g>
					<g>
						<g>
							<g>
								<g>
									<g>
										<polygon style="fill:#FE9F73;" points="1507.551,1335.029 1579.624,1336.011 1580.657,1268.636 1508.867,1259.746 
																					"/>
									</g>
								</g>
							</g>
						</g>
					</g>
				</g>
			</g>
		</g>
		<g>
			<g>
				<g>
					<g>
						<g>
							<path style="fill:#3AA1C9;" d="M1433.497,1347.158h147.16v-29.352c0,0-10.704-14.089-27.002-6.898
								c0,0-24.128,17.318-45.858-3.375l-54.486,23.188C1453.31,1330.722,1433.497,1337.179,1433.497,1347.158z"/>
						</g>
					</g>
				</g>
			</g>
			<g>
				<g>
					<g>
						<g>
							<path style="fill:#472A31;" d="M1580.657,1357.432h-151.766c-0.986,0-1.786-0.8-1.786-1.786v-6.702
								c0-0.986,0.799-1.786,1.786-1.786h151.766V1357.432z"/>
						</g>
					</g>
				</g>
			</g>
			<g>
				<g>
					<g>
						<g>
							<path style="fill:#D7E4F7;" d="M1491.668,1314.397c4.937,7.64,14.85,22.994,21.157,32.761h10.031
								c-5.633-8.725-17.443-27.017-23.319-36.11L1491.668,1314.397z"/>
						</g>
					</g>
				</g>
			</g>
			<g>
				<g>
					<g>
						<g>
							<path style="fill:#D7E4F7;" d="M1496.739,1347.158h10.031c-4.583-7.1-13.52-20.942-19.849-30.74l-7.869,3.349
								C1484.368,1327.999,1491.734,1339.407,1496.739,1347.158z"/>
						</g>
					</g>
				</g>
			</g>
		</g>
		<g>
			<g>
				<path style="fill:#7FC6A6;" d="M1731.694,1094.771c0,0,62.044,1.02,105.529-0.468c13.958-0.478,26.38,0.505,33.735-1.128
					c30.267-6.722,37.723-101.197,3.355-159.08c-34.368-57.883-154.613,119.834-154.613,119.834L1731.694,1094.771z"/>
			</g>
		</g>
		<g>
			<g>
				<g>
					<g>
						<g>
							<g>
								<g>
									<g>
										<polygon style="fill:#FE9F73;" points="1619.417,1335.029 1691.491,1336.011 1692.524,1268.636 1620.734,1259.746 
																					"/>
									</g>
								</g>
							</g>
						</g>
					</g>
				</g>
			</g>
		</g>
		<g>
			<g>
				<g>
					<g>
						<g>
							<path style="fill:#4CB7D8;" d="M1545.364,1347.158h147.16v-29.352c0,0-10.704-14.089-27.002-6.898
								c0,0-24.127,17.318-45.858-3.375l-54.486,23.188C1565.177,1330.722,1545.364,1337.179,1545.364,1347.158z"/>
						</g>
					</g>
				</g>
			</g>
			<g>
				<g>
					<g>
						<g>
							<path style="fill:#683D46;" d="M1692.524,1357.432h-151.766c-0.986,0-1.786-0.8-1.786-1.786v-6.702
								c0-0.986,0.799-1.786,1.786-1.786h151.766V1357.432z"/>
						</g>
					</g>
				</g>
			</g>
			<g>
				<g>
					<g>
						<g>
							<path style="fill:#D7E4F7;" d="M1603.535,1314.397c4.937,7.64,14.85,22.994,21.157,32.761h10.031
								c-5.633-8.725-17.443-27.017-23.319-36.11L1603.535,1314.397z"/>
						</g>
					</g>
				</g>
			</g>
			<g>
				<g>
					<g>
						<g>
							<path style="fill:#D7E4F7;" d="M1608.605,1347.158h10.031c-4.584-7.1-13.521-20.942-19.85-30.74l-7.869,3.349
								C1596.234,1327.999,1603.601,1339.407,1608.605,1347.158z"/>
						</g>
					</g>
				</g>
			</g>
		</g>
		<g>
			<g>
				<g>
					<path style="fill:#258D8C;" d="M1664.887,968.337c0,0-152.404,9.739-156.804,27.338c-4.4,17.599-17.007,204.702-7.579,284.525
						c0,0,57.824,3.981,85.479-2.724l6.731-194.633l45.646-5.238L1742.929,951.9L1664.887,968.337z"/>
				</g>
			</g>
		</g>
		<g>
			<g>
				<g>
					<path style="fill:#7FC6A6;" d="M1738.11,965.456c0,0-117.534,33.164-121.934,50.763c-4.4,17.599-16.924,184.577-7.496,264.399
						c0,0,62.178,3.562,89.833-3.143l7.452-183.601l26.821,0.935l65.033-114.416L1738.11,965.456z"/>
				</g>
			</g>
		</g>
		<g>
			<g>
				<g>
					<path style="fill:#21111D;" d="M1661.203,1282.788c27.475,0,37.271-4.138,37.736-4.341l0.608-0.267l7.214-184.681
						l-11.353,5.355l0.905,1.918l8.193-3.863l-7.024,179.82c-2.972,1.026-17.222,5.138-50.877,3.585l-0.098,2.118
						C1651.887,1282.681,1656.776,1282.788,1661.203,1282.788z"/>
				</g>
			</g>
		</g>
		<g>
			<g>
				<g>
					<path style="fill:#21111D;" d="M1686.969,1242.963c2.932-11.31,3.771-121.629,3.805-126.32l-2.121-0.015
						c-0.008,1.146-0.87,114.745-3.737,125.803L1686.969,1242.963z"/>
				</g>
			</g>
		</g>
		<g>
			<g>
				<g>
					<path style="fill:#21111D;" d="M1577.744,1086.994c13.936-4.508,33.12-5.186,33.312-5.192l-0.069-2.12
						c-0.195,0.006-19.671,0.692-33.896,5.294L1577.744,1086.994z"/>
				</g>
			</g>
		</g>
		<g>
			<g>
				<g>
					<path style="fill:#21111D;" d="M1546.382,1282.394c23.476,0,39.686-3.848,39.851-3.888l0.783-0.189l6.806-196.801l-8.69,6.996
						l1.33,1.652l5.079-4.089l-6.589,190.544c-3.597,0.776-19.263,3.87-40.626,3.644l-0.021,2.121
						C1545.004,1282.391,1545.696,1282.394,1546.382,1282.394z"/>
				</g>
			</g>
		</g>
		<g>
			<g>
				<g>
					<path style="fill:#21111D;" d="M1575.949,1247.066c2.917-17.084,0.135-132.726,0.015-137.641l-2.121,0.051
						c0.029,1.202,2.897,120.351,0.015,137.233L1575.949,1247.066z"/>
				</g>
			</g>
		</g>
		<g>
			<g>
				<path style="fill:#21111D;" d="M1778.378,1096.749c27.072,0,59.528-0.916,96.015-3.664l-0.159-2.108
					c-108.714,8.191-181.62,0.087-182.344,0.004l-0.24,2.099C1692.132,1093.136,1724.629,1096.749,1778.378,1096.749z"/>
			</g>
		</g>
		<g>
			<g>
				<g>
					<g>
						<path style="fill:#FD7583;" d="M1741.164,906.195c-2.099-0.036-86.526,36.274-86.526,36.274l17.015,32.557l47.379-10.401
							L1741.164,906.195z"/>
					</g>
				</g>
			</g>
		</g>
		<g>
			<g>
				<path style="fill:#FD7583;" d="M1863.489,754.887c0,0,35.9-1.256,53.037,8.453c25.574,14.488,16.464,97.467,16.464,97.467
					s-21.733-11.854-23.05-15.805C1908.624,841.051,1863.489,754.887,1863.489,754.887z"/>
			</g>
		</g>
		<g>
			<g>
				<g>
					<g>
						<path style="fill:#21111D;" d="M1872.198,935.004c-0.042,0.016-0.085,0.029-0.13,0.039l-26.412,6.043
							c-0.532,0.121-1.062-0.211-1.183-0.743c-0.122-0.531,0.209-1.059,0.743-1.183l26.412-6.043
							c0.532-0.121,1.062,0.211,1.183,0.743C1872.921,934.347,1872.652,934.833,1872.198,935.004z"/>
					</g>
				</g>
			</g>
		</g>
		<path style="fill:#F9B59D;" d="M1886,919.302l-16.08,6.953l-17.884,8.479c0,0-27.773,4.821-28.175,4.732
			c-0.059-0.013,2.308,4.133,2.308,4.133c-34.46,4.251-143.069,8.712-160.9,10.702c-10.75,1.2-21.079,14.563-27.592,24.992
			l8.828,5.973c0,0,94.849-4.182,94.658-2.19c-0.06,0.629-2.736,10.044-6.892,22.363c58.581,3.916,140.621,3.54,155.855-20.6
			C1902.625,965.034,1890.441,936.606,1886,919.302z"/>
		<g>
			<g>
				<path style="fill:#FD7583;" d="M1898.24,761.364c-20.404-2.825-74.242-4.775-74.242-4.775s-7.132,1.871-4.86,0.817
					c-59.454,10.498-66.026,54.587-66.026,54.587l-29.022,127.388l-32.295,1.748c-10.452,19.803-2.776,73.218-2.776,73.218
					l156.425,17.629c0,0,33.811,5.574,62.408-31.099c18.918-24.261,25.354-98.75,25.346-153.175
					C1933.198,847.704,1929.947,765.755,1898.24,761.364z"/>
			</g>
		</g>
		<g>
			<g>
				<polygon style="fill:#223749;" points="1460.098,860.007 1609.035,860.007 1660.978,992.281 1512.041,992.281 				"/>
				<polygon style="fill:#385B78;" points="1660.978,992.281 1653.206,992.281 1601.263,860.007 1609.035,860.007 				"/>
				<path style="fill:#E2F2F1;" d="M1557.468,921.929c2.064,6.076,0.552,12.085-3.379,13.421c-3.931,1.336-8.791-2.508-10.855-8.584
					c-2.065-6.076-0.552-12.085,3.379-13.421C1550.543,912.009,1555.403,915.853,1557.468,921.929z"/>
			</g>
			<path style="fill:#385B78;" d="M1710.213,981.599h-55.64v10.682h55.64c2.95,0,5.341-2.391,5.341-5.341l0,0
				C1715.553,983.99,1713.162,981.599,1710.213,981.599z"/>
			<rect x="1660.978" y="985.266" style="fill:#223749;" width="35.148" height="1.674"/>
		</g>
		<g>
			<g>
				<g>
					<g>
						<path style="fill:#21111D;" d="M1845.657,941.588c-0.178,0.067-0.377,0.084-0.575,0.037c-0.531-0.125-0.86-0.657-0.735-1.188
							c0.164-0.697,16.512-70.191,23.468-113.922c0.087-0.539,0.595-0.906,1.131-0.821c0.539,0.086,0.906,0.592,0.821,1.131
							c-6.968,43.804-23.332,113.367-23.497,114.065C1846.191,941.223,1845.953,941.476,1845.657,941.588z"/>
					</g>
				</g>
			</g>
		</g>
		<g>
			<g>
				<g>
					<g>
						<path style="fill:#21111D;" d="M1744.48,940.446c-0.2,0.076-0.426,0.087-0.646,0.018c-0.521-0.164-0.809-0.719-0.645-1.239
							c0.245-0.774,24.499-77.732,29.565-104.337c0.102-0.536,0.621-0.887,1.155-0.786c0.536,0.102,0.888,0.619,0.786,1.155
							c-5.088,26.719-29.377,103.787-29.622,104.562C1744.979,940.119,1744.754,940.342,1744.48,940.446z"/>
					</g>
				</g>
			</g>
		</g>
		<g>
			<g>
				<g>
					<g>
						<path style="fill:#21111D;" d="M1843.086,793.926c-0.764,0.079-1.541,0.147-2.334,0.202c-0.452,0.032-0.845-0.309-0.876-0.762
							c-0.031-0.451,0.295-0.84,0.762-0.876c34.021-2.388,40.338-27.294,40.386-27.544c0.084-0.438,0.502-0.742,0.944-0.665
							c0.44,0.074,0.743,0.475,0.679,0.916C1882.609,765.454,1876.33,790.487,1843.086,793.926z"/>
					</g>
				</g>
			</g>
		</g>
		<g>
			<g>
				<g>
					<g>
						<path style="fill:#21111D;" d="M1737.538,922.081c-0.443,0.167-0.954-0.004-1.201-0.427l-6.631-11.363l0.087-0.38
							l22.35-98.101c0.138-0.885,2.075-12.317,11.766-24.922c9.085-11.818,27.002-26.846,60.759-31.337
							c0.541-0.072,1.038,0.308,1.109,0.849c0.072,0.54-0.309,1.037-0.849,1.109c-33.028,4.393-50.524,19.007-59.386,30.495
							c-9.603,12.448-11.434,24.021-11.451,24.136l-0.014,0.073l-22.271,97.755l6.239,10.689c0.275,0.471,0.116,1.076-0.355,1.351
							C1737.639,922.037,1737.589,922.061,1737.538,922.081z"/>
					</g>
				</g>
			</g>
		</g>
		<g>
			<g>
				<g>
					<g>
						<path style="fill:#21111D;" d="M1702.562,922.439c-0.502,0.19-1.066-0.057-1.266-0.558c-0.202-0.507,0.045-1.081,0.551-1.284
							l28.541-11.385c0.525-0.181,1.082,0.044,1.284,0.551c0.202,0.507-0.045,1.081-0.552,1.284l-28.541,11.385L1702.562,922.439z"
							/>
					</g>
				</g>
			</g>
		</g>
		<g>
			<g>
				<path style="fill:#FD7583;" d="M1691.796,941.131c0,0-10.323,24.361-2.776,73.218l37.746-20.252l-11.212-36.499
					L1691.796,941.131z"/>
			</g>
		</g>
		<g>
			<g>
				<g>
					<g>
						<path style="fill:#21111D;" d="M1879.772,942.466c-0.117,0.044-0.245,0.067-0.379,0.063
							c-1.413-0.043-141.176-4.238-186.904-0.465c-1.124,3.002-6.284,18.511-4.839,46.887c0.027,0.545-0.388,1.01-0.936,1.037
							c-0.545,0.027-1.009-0.392-1.037-0.936c-1.636-32.154,4.932-47.67,5.212-48.315l0.235-0.54l0.587-0.05
							c45.195-3.871,186.322,0.365,187.743,0.407c0.545,0.016,0.974,0.472,0.957,1.018
							C1880.399,941.984,1880.136,942.329,1879.772,942.466z"/>
					</g>
				</g>
			</g>
		</g>
		<g>
			<g>
				<g>
					<g>
						<g>
							<g>
								<g>
									<path style="fill:#FE9F73;" d="M1819.859,681.555l-3.699,42.843c0,0-1.763,13.723,10.14,16.486l-3.837,18.182
										c-1.426,6.758,2.094,13.65,8.474,16.294c3.12,1.293,6.885,2.365,11.228,2.74c13.773,1.189,22.125-8.496,23.719-13.562
										c1.594-5.066,0.281-30.04,0.281-30.04l1.466-12.089l2.49-47.118L1819.859,681.555z"/>
								</g>
							</g>
						</g>
					</g>
				</g>
			</g>
			<g>
				<g>
					<g>
						<g>
							<g>
								<g>
									<path style="fill:#F07162;" d="M1855.248,731.596c0,0-2.799,22.983-31.779,22.698l2.83-13.41
										C1826.299,740.884,1844.647,746.248,1855.248,731.596z"/>
								</g>
							</g>
						</g>
					</g>
				</g>
			</g>
			<g>
				<g>
					<g>
						<g>
							<g>
								<g>
									<path style="fill:#49263E;" d="M1851.171,706.898c0.143,0.012,0.291-0.029,0.411-0.126c0.247-0.199,0.286-0.562,0.087-0.81
										c-0.072-0.089-7.268-8.845-14.982-3.656c-0.264,0.177-0.334,0.535-0.156,0.799c0.177,0.265,0.535,0.335,0.8,0.156
										c6.836-4.597,13.176,3.094,13.443,3.424C1850.875,706.812,1851.02,706.885,1851.171,706.898z"/>
								</g>
							</g>
						</g>
					</g>
				</g>
			</g>
			<g>
				<g>
					<g>
						<g>
							<path style="fill:#4C222E;" d="M1871.469,702.584l-12.608,1.509l-2.439,2.126c0,0,2.865-20.671,5.55-24.552
								C1864.657,677.786,1871.469,702.584,1871.469,702.584z"/>
						</g>
					</g>
				</g>
			</g>
			<g>
				<g>
					<g>
						<g>
							<g>
								<g>
									<path style="fill:#49263E;" d="M1827.812,701.412c0.161,0.014,0.326-0.04,0.451-0.161c0.228-0.221,0.234-0.586,0.012-0.814
										c-0.214-0.221-5.284-5.375-9.001-2.706c-0.258,0.185-0.318,0.545-0.132,0.803c0.185,0.259,0.545,0.318,0.804,0.132
										c2.912-2.091,7.457,2.526,7.502,2.573C1827.549,701.343,1827.678,701.4,1827.812,701.412z"/>
								</g>
							</g>
						</g>
					</g>
				</g>
			</g>
			<g>
				<g>
					<g>
						<g>
							<g>
								<g>
									<path d="M1839.366,708.215c-0.082,0.951,0.622,1.788,1.573,1.87c0.951,0.082,1.788-0.622,1.87-1.573
										c0.082-0.951-0.622-1.788-1.573-1.87C1840.285,706.56,1839.448,707.264,1839.366,708.215z"/>
								</g>
							</g>
						</g>
					</g>
				</g>
			</g>
			<g>
				<g>
					<g>
						<g>
							<g>
								<g>
									<path d="M1821.214,704.913c-0.082,0.951,0.622,1.788,1.573,1.87c0.951,0.082,1.788-0.622,1.87-1.573
										c0.082-0.951-0.622-1.788-1.573-1.87C1822.134,703.258,1821.296,703.962,1821.214,704.913z"/>
								</g>
							</g>
						</g>
					</g>
				</g>
			</g>
			<g>
				<g>
					<g>
						<g>
							<g>
								<g>
									<path style="fill:#FE9F73;" d="M1853.637,708.845c-0.493,5.705,3.733,10.729,9.438,11.222
										c5.705,0.493,10.729-3.733,11.222-9.438c0.493-5.705-3.733-10.729-9.438-11.222
										C1859.153,698.914,1854.129,703.14,1853.637,708.845z"/>
								</g>
							</g>
						</g>
					</g>
				</g>
			</g>
			<g>
				<g>
					<g>
						<g>
							<g>
								<g>
									<path style="fill:#F07162;" d="M1865.279,715.627c2.146,0.185,3.719-1.304,4.329-2.875
										c0.723-1.859,0.243-3.766-1.222-4.861c-2.165-1.618-4.318-0.885-5.44-0.278c0.547-1.134,1.32-1.927,2.305-2.363
										c2.132-0.945,4.586,0.089,4.61,0.1c0.146,0.063,0.315-0.005,0.379-0.151c0.063-0.146-0.004-0.315-0.15-0.378
										c-0.109-0.047-2.703-1.143-5.068-0.099c-1.365,0.602-2.361,1.792-2.96,3.536l-0.336,0.978l0.793-0.663
										c0.112-0.094,2.775-2.271,5.523-0.219c1.521,1.136,1.506,2.968,1.03,4.19c-0.494,1.269-1.768,2.68-3.741,2.51
										c-0.02-0.002-0.038-0.005-0.038-0.005c-0.177-0.014-0.316,0.1-0.332,0.258c-0.016,0.158,0.099,0.299,0.258,0.315
										C1865.218,715.621,1865.259,715.625,1865.279,715.627z"/>
								</g>
							</g>
						</g>
					</g>
				</g>
			</g>
			<g>
				<g>
					<g>
						<g>
							<g>
								<g>
									<path style="fill:#F07162;" d="M1832.29,719.303c0.12,0.01,0.239-0.056,0.289-0.173c0.063-0.146-0.005-0.316-0.151-0.378
										l-5.588-2.399l2.986-13.38c0.035-0.155-0.063-0.309-0.218-0.344c-0.156-0.039-0.309,0.063-0.344,0.218l-3.09,13.846
										l6.027,2.587C1832.23,719.294,1832.26,719.301,1832.29,719.303z"/>
								</g>
							</g>
						</g>
					</g>
				</g>
			</g>
			<g>
				<g>
					<g>
						<g>
							<g>
								<g>
									<path style="fill:#FBFDFC;" d="M1836.262,725.277c-0.174-0.05-11.337-1.278-11.337-1.278s1.005,4.747,5.153,5.215
										C1834.226,729.682,1836.262,725.277,1836.262,725.277z"/>
								</g>
							</g>
						</g>
					</g>
				</g>
			</g>
			<g>
				<g>
					<g>
						<g>
							<path style="fill:#4C222E;" d="M1871.469,702.584c0,0,5.224-19.812-0.287-27.841c-5.511-8.029-39.722-24.201-44.33-20.822
								c-4.608,3.379-0.717,8.3-0.717,8.3s-13.798-5.777-18.098,6.53c-4.3,12.307,25.762,20.298,44.479,15.98
								C1852.516,684.73,1864.255,689.283,1871.469,702.584z"/>
						</g>
					</g>
				</g>
			</g>
		</g>
		<g>
			<g>
				<g>
					<g>
						<path style="fill:#21111D;" d="M1872.694,1029.042c-2.319,0.876-4.503,1.561-6.516,2.095
							c-12.093,3.208-20.541,1.875-20.895,1.817c-0.537-0.088-0.902-0.596-0.813-1.134c0.088-0.538,0.596-0.902,1.134-0.815
							c0.083,0.014,8.463,1.322,20.17-1.805c10.797-2.88,26.729-10.242,41.3-28.927c18.291-23.457,24.972-95.677,25.136-150.393
							c0.001-0.545,0.445-0.988,0.99-0.985c0.546,0.001,0.986,0.445,0.985,0.99c-0.164,55.029-6.955,127.752-25.553,151.602
							C1896.395,1017.179,1883.184,1025.076,1872.694,1029.042z"/>
					</g>
				</g>
			</g>
		</g>
	</g>
</g>
</svg>
